<svg width="33" height="9" viewBox="0 0 33 9" fill="none" xmlns="http://www.w3.org/2000/svg">
<path d="M2.484 3.024V6.24C2.484 6.464 2.536 6.628 2.64 6.732C2.752 6.828 2.936 6.876 3.192 6.876H3.972V8.292H2.916C1.5 8.292 0.792 7.604 0.792 6.228V3.024H-1.86265e-07V1.644H0.792V-7.15256e-07H2.484V1.644H3.972V3.024H2.484ZM11.3603 4.824C11.3603 5.064 11.3443 5.28 11.3123 5.472H6.45234C6.49234 5.952 6.66034 6.328 6.95634 6.6C7.25234 6.872 7.61634 7.008 8.04834 7.008C8.67234 7.008 9.11634 6.74 9.38034 6.204H11.1923C11.0003 6.844 10.6323 7.372 10.0883 7.788C9.54434 8.196 8.87634 8.4 8.08434 8.4C7.44434 8.4 6.86834 8.26 6.35634 7.98C5.85234 7.692 5.45634 7.288 5.16834 6.768C4.88834 6.248 4.74834 5.648 4.74834 4.968C4.74834 4.28 4.88834 3.676 5.16834 3.156C5.44834 2.636 5.84034 2.236 6.34434 1.956C6.84834 1.676 7.42834 1.536 8.08434 1.536C8.71634 1.536 9.28034 1.672 9.77634 1.944C10.2803 2.216 10.6683 2.604 10.9403 3.108C11.2203 3.604 11.3603 4.176 11.3603 4.824ZM9.62034 4.344C9.61234 3.912 9.45634 3.568 9.15234 3.312C8.84834 3.048 8.47634 2.916 8.03634 2.916C7.62034 2.916 7.26834 3.044 6.98034 3.3C6.70034 3.548 6.52834 3.896 6.46434 4.344H9.62034ZM14.2666 2.676C14.4826 2.324 14.7626 2.048 15.1066 1.848C15.4586 1.648 15.8586 1.548 16.3066 1.548V3.312H15.8626C15.3346 3.312 14.9346 3.436 14.6626 3.684C14.3986 3.932 14.2666 4.364 14.2666 4.98V8.292H12.5866V1.644H14.2666V2.676ZM19.1182 2.676C19.3342 2.324 19.6142 2.048 19.9582 1.848C20.3102 1.648 20.7102 1.548 21.1582 1.548V3.312H20.7142C20.1862 3.312 19.7862 3.436 19.5142 3.684C19.2502 3.932 19.1182 4.364 19.1182 4.98V8.292H17.4382V1.644H19.1182V2.676ZM21.8577 4.944C21.8577 4.272 21.9897 3.676 22.2537 3.156C22.5257 2.636 22.8897 2.236 23.3457 1.956C23.8097 1.676 24.3257 1.536 24.8937 1.536C25.3897 1.536 25.8217 1.636 26.1897 1.836C26.5657 2.036 26.8657 2.288 27.0897 2.592V1.644H28.7817V8.292H27.0897V7.32C26.8737 7.632 26.5737 7.892 26.1897 8.1C25.8137 8.3 25.3777 8.4 24.8817 8.4C24.3217 8.4 23.8097 8.256 23.3457 7.968C22.8897 7.68 22.5257 7.276 22.2537 6.756C21.9897 6.228 21.8577 5.624 21.8577 4.944ZM27.0897 4.968C27.0897 4.56 27.0097 4.212 26.8497 3.924C26.6897 3.628 26.4737 3.404 26.2017 3.252C25.9297 3.092 25.6377 3.012 25.3257 3.012C25.0137 3.012 24.7257 3.088 24.4617 3.24C24.1977 3.392 23.9817 3.616 23.8137 3.912C23.6537 4.2 23.5737 4.544 23.5737 4.944C23.5737 5.344 23.6537 5.696 23.8137 6C23.9817 6.296 24.1977 6.524 24.4617 6.684C24.7337 6.844 25.0217 6.924 25.3257 6.924C25.6377 6.924 25.9297 6.848 26.2017 6.696C26.4737 6.536 26.6897 6.312 26.8497 6.024C27.0097 5.728 27.0897 5.376 27.0897 4.968ZM31.1665 8.376C30.8625 8.376 30.6105 8.284 30.4105 8.1C30.2185 7.908 30.1225 7.672 30.1225 7.392C30.1225 7.112 30.2185 6.88 30.4105 6.696C30.6105 6.504 30.8625 6.408 31.1665 6.408C31.4625 6.408 31.7065 6.504 31.8985 6.696C32.0905 6.88 32.1865 7.112 32.1865 7.392C32.1865 7.672 32.0905 7.908 31.8985 8.1C31.7065 8.284 31.4625 8.376 31.1665 8.376Z" fill="#0088FF"/>
</svg>
